# xmcd
#
# Track frame offsets:
#	150
#	13320
#	26360
#	39550
#	52590
#	67047
#	84855
#	98362
#	107670
#	120232
#	133167
#	144260
#	156152
#	170075
#	187900
#
# Disc length: 2650 seconds
#
# Revision: 0
# Processed by: cddbd v1.4PL0 Copyright (c) Steve Scherf et al.
# Submitted via: audiograbber 1.81.02
#
DISCID=b30a580f
DTITLE=WORRIED MEN SKIFFLE GROUP - Ein Spass am Wörthersee
DYEAR=1900
DGENRE=Other
TTITLE0=WORRIED MEN SKIFFLE GROUP - I BIN A WUNDER
TTITLE1=WORRIED MEN SKIFFLE GROUP - OBERSTLEUTNANT
TTITLE2=WORRIED MEN SKIFFLE GROUP - TROTTEL - KANNST MI HASS`N
TTITLE3=WORRIED MEN SKIFFLE GROUP - WANDERN DURCH DEN WIENERWALD
TTITLE4=WORRIED MEN SKIFFLE GROUP - I BIN DER GROESSTE
TTITLE5=WORRIED MEN SKIFFLE GROUP - OHNE LEDER
TTITLE6=WORRIED MEN SKIFFLE GROUP - MAMI
TTITLE7=WORRIED MEN SKIFFLE GROUP - I BIN A WUNDER
TTITLE8=WORRIED MEN SKIFFLE GROUP - SCHNUCKI
TTITLE9=WORRIED MEN SKIFFLE GROUP - I WÜ ABER I TRAU MI NED
TTITLE10=WORRIED MEN SKIFFLE GROUP - HAU DI ZUWA ALTES HAUS
TTITLE11=WORRIED MEN SKIFFLE GROUP - DER MENSCH IS A SAU
TTITLE12=WORRIED MEN SKIFFLE GROUP - DA SCHENSTE MAUN VON WIEN
TTITLE13=WORRIED MEN SKIFFLE GROUP - ZEITSCHRIFTENANNONCEN
TTITLE14=WORRIED MEN SKIFFLE GROUP - BLUAT MIT BIERFAM FIA`N VAMPIR
EXTD=
EXTT0=
EXTT1=
EXTT2=
EXTT3=
EXTT4=
EXTT5=
EXTT6=
EXTT7=
EXTT8=
EXTT9=
EXTT10=
EXTT11=
EXTT12=
EXTT13=
EXTT14=
PLAYORDER=
